<?xml version="1.0" encoding="utf-8"?>
<!DOCTYPE svg PUBLIC "-//W3C//DTD SVG 1.1//EN" "http://www.w3.org/Graphics/SVG/1.1/DTD/svg11.dtd">
<svg version="1.1" xmlns="http://www.w3.org/2000/svg" xmlns:xlink="http://www.w3.org/1999/xlink" x="0px" y="0px" viewBox="0 0 1000 1000" enable-background="new 0 0 1000 1000" xml:space="preserve">
<g><g transform="translate(0.000000,511.000000) scale(0.100000,-0.100000)"><path d="M3609.8,1492.6L100-2017.1v-1384.8v-1382.6h1384.8h1382.6l3516.3,3516.3L9900,2248L8521.7,3626.3c-757.5,757.5-1382.6,1378.3-1389.1,1378.3S5541.6,3424.4,3609.8,1492.6z M8087.6,3192.2l944.2-944.2l-293-293l-293-293l-948.5,948.5l-950.7,950.7l286.5,286.5c158.4,158.4,293,288.7,299.5,288.7S7568.8,3710.9,8087.6,3192.2z M7067.4,2172l944.2-944.2l-267-264.8l-264.8-267l-948.5,948.5l-950.7,950.7l260.5,260.5c143.3,143.3,264.8,260.5,271.3,260.5S6548.7,2690.8,7067.4,2172z M4827.4-1958.5L2607-4176.8l-944.2,4.3l-944.2,6.5l-6.5,944.2l-4.3,944.2L2926-59.3l2220.5,2220.5l948.5-948.5l950.7-950.7L4827.4-1958.5z"/></g></g>
</svg>